<mxfile host="app.diagrams.net" modified="2023-11-28T12:23:25.390Z" agent="Mozilla/5.0 (Windows NT 10.0; Win64; x64) AppleWebKit/537.36 (KHTML, like Gecko) Chrome/118.0.0.0 Safari/537.36 OPR/104.0.0.0" etag="Y9JkJ8RoS7vA9wBFhg8r" version="22.1.4" type="github">
  <diagram name="Page-1" id="88say22HIAeJnyaCDxLZ">
    <mxGraphModel dx="961" dy="528" grid="1" gridSize="10" guides="1" tooltips="1" connect="1" arrows="1" fold="1" page="1" pageScale="1" pageWidth="850" pageHeight="1100" background="#ffffff" math="0" shadow="0">
      <root>
        <mxCell id="0" />
        <mxCell id="1" parent="0" />
        <mxCell id="RWOpoAa0g8dToT_tsujj-1" value="&lt;font style=&quot;font-size: 23px;&quot;&gt;Könyvtári Nyilvántartó Program Felhasználói Felület&lt;/font&gt;" style="rounded=0;whiteSpace=wrap;html=1;fillColor=#FFFFFF;" vertex="1" parent="1">
          <mxGeometry x="10" y="10" width="340" height="60" as="geometry" />
        </mxCell>
        <mxCell id="RWOpoAa0g8dToT_tsujj-62" value="" style="group" vertex="1" connectable="0" parent="1">
          <mxGeometry x="15" y="100" width="820" height="650" as="geometry" />
        </mxCell>
        <mxCell id="RWOpoAa0g8dToT_tsujj-2" value="" style="rounded=0;whiteSpace=wrap;html=1;" vertex="1" parent="RWOpoAa0g8dToT_tsujj-62">
          <mxGeometry y="34.21052631578947" width="820" height="615.7894736842105" as="geometry" />
        </mxCell>
        <mxCell id="RWOpoAa0g8dToT_tsujj-3" value="&lt;font style=&quot;font-size: 30px;&quot;&gt;Könyvtár&lt;/font&gt;" style="rounded=1;whiteSpace=wrap;html=1;fillColor=#dae8fc;strokeColor=#6c8ebf;" vertex="1" parent="RWOpoAa0g8dToT_tsujj-62">
          <mxGeometry y="46.184210526315795" width="220.1851851851852" height="184.73684210526318" as="geometry" />
        </mxCell>
        <mxCell id="RWOpoAa0g8dToT_tsujj-4" value="&lt;font style=&quot;font-size: 30px;&quot;&gt;Felhasználók&lt;/font&gt;" style="rounded=1;whiteSpace=wrap;html=1;fillColor=#dae8fc;strokeColor=#6c8ebf;" vertex="1" parent="RWOpoAa0g8dToT_tsujj-62">
          <mxGeometry y="239.47368421052633" width="220.1851851851852" height="199.27631578947367" as="geometry" />
        </mxCell>
        <mxCell id="RWOpoAa0g8dToT_tsujj-5" value="&lt;font style=&quot;font-size: 30px;&quot;&gt;Információ&lt;/font&gt;" style="rounded=1;whiteSpace=wrap;html=1;fillColor=#dae8fc;strokeColor=#6c8ebf;" vertex="1" parent="RWOpoAa0g8dToT_tsujj-62">
          <mxGeometry y="444.7368421052632" width="220.1851851851852" height="196.71052631578948" as="geometry" />
        </mxCell>
        <mxCell id="RWOpoAa0g8dToT_tsujj-6" value="&lt;font style=&quot;font-size: 45px;&quot;&gt;Megjelenítési felület&lt;br&gt;&lt;/font&gt;" style="rounded=0;whiteSpace=wrap;html=1;fillColor=#d5e8d4;strokeColor=none;" vertex="1" parent="RWOpoAa0g8dToT_tsujj-62">
          <mxGeometry x="220.1851851851852" y="34.21052631578947" width="599.8148148148149" height="615.7894736842105" as="geometry" />
        </mxCell>
        <mxCell id="RWOpoAa0g8dToT_tsujj-7" value="&lt;div style=&quot;font-size: 20px;&quot; align=&quot;left&quot;&gt;Könyvtári nyilvántartás&lt;br&gt;&lt;/div&gt;" style="rounded=0;whiteSpace=wrap;html=1;align=left;" vertex="1" parent="RWOpoAa0g8dToT_tsujj-62">
          <mxGeometry width="820" height="34.21052631578947" as="geometry" />
        </mxCell>
        <mxCell id="RWOpoAa0g8dToT_tsujj-8" value="" style="rounded=0;whiteSpace=wrap;html=1;" vertex="1" parent="RWOpoAa0g8dToT_tsujj-62">
          <mxGeometry x="789.6296296296297" width="30.370370370370374" height="34.21052631578947" as="geometry" />
        </mxCell>
        <mxCell id="RWOpoAa0g8dToT_tsujj-9" value="" style="rounded=0;whiteSpace=wrap;html=1;" vertex="1" parent="RWOpoAa0g8dToT_tsujj-62">
          <mxGeometry x="759.2592592592594" width="30.370370370370374" height="34.21052631578947" as="geometry" />
        </mxCell>
        <mxCell id="RWOpoAa0g8dToT_tsujj-10" value="&lt;font style=&quot;font-size: 30px;&quot;&gt;-&lt;/font&gt;" style="rounded=0;whiteSpace=wrap;html=1;" vertex="1" parent="RWOpoAa0g8dToT_tsujj-62">
          <mxGeometry x="728.8888888888889" width="30.370370370370374" height="34.21052631578947" as="geometry" />
        </mxCell>
        <mxCell id="RWOpoAa0g8dToT_tsujj-11" value="" style="rounded=0;whiteSpace=wrap;html=1;" vertex="1" parent="RWOpoAa0g8dToT_tsujj-62">
          <mxGeometry x="770.6481481481482" y="12.828947368421053" width="7.5925925925925934" height="8.552631578947368" as="geometry" />
        </mxCell>
        <mxCell id="RWOpoAa0g8dToT_tsujj-12" value="" style="rounded=0;whiteSpace=wrap;html=1;" vertex="1" parent="RWOpoAa0g8dToT_tsujj-62">
          <mxGeometry x="774.4444444444445" y="8.552631578947368" width="7.5925925925925934" height="8.552631578947368" as="geometry" />
        </mxCell>
        <mxCell id="RWOpoAa0g8dToT_tsujj-13" value="" style="endArrow=none;html=1;rounded=0;" edge="1" parent="RWOpoAa0g8dToT_tsujj-62">
          <mxGeometry width="50" height="50" relative="1" as="geometry">
            <mxPoint x="797.2222222222223" y="25.657894736842106" as="sourcePoint" />
            <mxPoint x="812.4074074074075" y="8.552631578947368" as="targetPoint" />
          </mxGeometry>
        </mxCell>
        <mxCell id="RWOpoAa0g8dToT_tsujj-14" value="" style="endArrow=none;html=1;rounded=0;" edge="1" parent="RWOpoAa0g8dToT_tsujj-62">
          <mxGeometry width="50" height="50" relative="1" as="geometry">
            <mxPoint x="797.2222222222223" y="8.552631578947368" as="sourcePoint" />
            <mxPoint x="812.4074074074075" y="25.657894736842106" as="targetPoint" />
          </mxGeometry>
        </mxCell>
        <mxCell id="RWOpoAa0g8dToT_tsujj-63" value="" style="group" vertex="1" connectable="0" parent="1">
          <mxGeometry x="25" y="1120" width="805" height="670" as="geometry" />
        </mxCell>
        <mxCell id="RWOpoAa0g8dToT_tsujj-15" value="" style="rounded=0;whiteSpace=wrap;html=1;" vertex="1" parent="RWOpoAa0g8dToT_tsujj-63">
          <mxGeometry y="35.26315789473684" width="800" height="634.7368421052631" as="geometry" />
        </mxCell>
        <mxCell id="RWOpoAa0g8dToT_tsujj-16" value="&lt;div style=&quot;font-size: 50px;&quot;&gt;Könyvtár&lt;/div&gt;" style="text;html=1;strokeColor=none;fillColor=none;align=center;verticalAlign=middle;whiteSpace=wrap;rounded=0;fontSize=50;" vertex="1" parent="RWOpoAa0g8dToT_tsujj-63">
          <mxGeometry x="70.00185185185185" width="44.44444444444444" height="26.447368421052634" as="geometry" />
        </mxCell>
        <mxCell id="RWOpoAa0g8dToT_tsujj-17" value="&lt;font style=&quot;font-size: 30px;&quot;&gt;Felhasználók&lt;/font&gt;" style="rounded=1;whiteSpace=wrap;html=1;fillColor=#dae8fc;strokeColor=#6c8ebf;" vertex="1" parent="RWOpoAa0g8dToT_tsujj-63">
          <mxGeometry y="253.89473684210526" width="214.8148148148148" height="195.71052631578948" as="geometry" />
        </mxCell>
        <mxCell id="RWOpoAa0g8dToT_tsujj-18" value="&lt;div style=&quot;font-size: 30px;&quot;&gt;&lt;font style=&quot;font-size: 30px;&quot;&gt;Információ&lt;/font&gt;&lt;/div&gt;" style="rounded=1;whiteSpace=wrap;html=1;fillColor=#dae8fc;strokeColor=#6c8ebf;" vertex="1" parent="RWOpoAa0g8dToT_tsujj-63">
          <mxGeometry y="458.42105263157896" width="214.8148148148148" height="193.94736842105263" as="geometry" />
        </mxCell>
        <mxCell id="RWOpoAa0g8dToT_tsujj-19" value="" style="rounded=0;whiteSpace=wrap;html=1;fillColor=#f8cecc;strokeColor=none;strokeWidth=0;" vertex="1" parent="RWOpoAa0g8dToT_tsujj-63">
          <mxGeometry x="214.8148148148148" y="35.26315789473684" width="585.1851851851851" height="634.7368421052631" as="geometry" />
        </mxCell>
        <mxCell id="RWOpoAa0g8dToT_tsujj-20" value="&lt;font style=&quot;font-size: 30px;&quot;&gt;Könyvtár&lt;/font&gt;" style="rounded=0;whiteSpace=wrap;html=1;fillColor=#f8cecc;strokeColor=none;" vertex="1" parent="RWOpoAa0g8dToT_tsujj-63">
          <mxGeometry y="35.26315789473684" width="214.8148148148148" height="211.57894736842107" as="geometry" />
        </mxCell>
        <mxCell id="RWOpoAa0g8dToT_tsujj-21" value="&lt;div style=&quot;font-size: 24px;&quot; align=&quot;left&quot;&gt;&lt;font style=&quot;font-size: 24px;&quot; face=&quot;Times New Roman&quot;&gt;&amp;nbsp;&amp;nbsp;&amp;nbsp;&amp;nbsp;&amp;nbsp;&amp;nbsp;&amp;nbsp;&amp;nbsp;&amp;nbsp;&amp;nbsp;&amp;nbsp;&amp;nbsp;&amp;nbsp;&amp;nbsp;&amp;nbsp;&amp;nbsp;&amp;nbsp;&amp;nbsp;&amp;nbsp;&amp;nbsp;&amp;nbsp;&amp;nbsp;&amp;nbsp; Jókai Mór &amp;nbsp;&amp;nbsp;&amp;nbsp;&lt;/font&gt;&lt;/div&gt;&lt;div style=&quot;font-size: 24px;&quot; align=&quot;left&quot;&gt;&lt;font style=&quot;font-size: 24px;&quot; face=&quot;Times New Roman&quot;&gt;&amp;nbsp;&amp;nbsp;&amp;nbsp;&amp;nbsp;&amp;nbsp;&amp;nbsp;&amp;nbsp;&amp;nbsp;&amp;nbsp;&amp;nbsp;&amp;nbsp;&amp;nbsp;&amp;nbsp;&amp;nbsp;&amp;nbsp;&amp;nbsp;&amp;nbsp;&amp;nbsp;&amp;nbsp; Az aranyembe&lt;/font&gt;&lt;font face=&quot;Times New Roman&quot; style=&quot;font-size: 24px;&quot;&gt;&lt;font style=&quot;font-size: 24px;&quot;&gt;r&lt;/font&gt;&lt;br&gt;&lt;/font&gt;&lt;/div&gt;" style="rounded=1;whiteSpace=wrap;html=1;align=left;fillColor=#fff2cc;strokeColor=#d6b656;" vertex="1" parent="RWOpoAa0g8dToT_tsujj-63">
          <mxGeometry x="222.2222222222222" y="44.07894736842105" width="540.7407407407408" height="88.1578947368421" as="geometry" />
        </mxCell>
        <mxCell id="RWOpoAa0g8dToT_tsujj-22" value="&lt;div style=&quot;font-size: 21px;&quot; align=&quot;left&quot;&gt;&lt;font style=&quot;font-size: 21px;&quot;&gt;&lt;font style=&quot;font-size: 21px;&quot; face=&quot;Times New Roman&quot;&gt;&amp;nbsp;&amp;nbsp;&amp;nbsp;&amp;nbsp;&amp;nbsp;&amp;nbsp;&amp;nbsp;&amp;nbsp;&amp;nbsp;&amp;nbsp;&amp;nbsp;&amp;nbsp;&amp;nbsp;&amp;nbsp;&amp;nbsp;&amp;nbsp;&amp;nbsp;&amp;nbsp;&amp;nbsp;&amp;nbsp;&amp;nbsp; Mikszáth Kálmán&amp;nbsp;&amp;nbsp;&amp;nbsp;&lt;/font&gt;&lt;/font&gt;&lt;/div&gt;&lt;div style=&quot;font-size: 21px;&quot; align=&quot;left&quot;&gt;&lt;font style=&quot;font-size: 21px;&quot;&gt;&lt;font style=&quot;font-size: 21px;&quot; face=&quot;Times New Roman&quot;&gt;&amp;nbsp;&amp;nbsp;&amp;nbsp;&amp;nbsp;&amp;nbsp;&amp;nbsp;&amp;nbsp;&amp;nbsp;&amp;nbsp;&amp;nbsp;&amp;nbsp;&amp;nbsp;&amp;nbsp;&amp;nbsp;&amp;nbsp;&amp;nbsp;&amp;nbsp;&amp;nbsp; Szent Péter esernyője&lt;/font&gt;&lt;/font&gt;&lt;br&gt;&lt;/div&gt;" style="rounded=1;whiteSpace=wrap;html=1;align=left;fillColor=#fff2cc;strokeColor=#d6b656;" vertex="1" parent="RWOpoAa0g8dToT_tsujj-63">
          <mxGeometry x="222.2222222222222" y="149.8684210526316" width="540.7407407407408" height="88.1578947368421" as="geometry" />
        </mxCell>
        <mxCell id="RWOpoAa0g8dToT_tsujj-23" value="" style="rounded=1;whiteSpace=wrap;html=1;fillColor=#fff2cc;strokeColor=#d6b656;" vertex="1" parent="RWOpoAa0g8dToT_tsujj-63">
          <mxGeometry x="222.2222222222222" y="253.89473684210526" width="540.7407407407408" height="88.1578947368421" as="geometry" />
        </mxCell>
        <mxCell id="RWOpoAa0g8dToT_tsujj-24" value="" style="rounded=1;whiteSpace=wrap;html=1;fillColor=#fff2cc;strokeColor=#d6b656;" vertex="1" parent="RWOpoAa0g8dToT_tsujj-63">
          <mxGeometry x="222.2222222222222" y="359.6842105263158" width="540.7407407407408" height="88.1578947368421" as="geometry" />
        </mxCell>
        <mxCell id="RWOpoAa0g8dToT_tsujj-25" value="" style="rounded=1;whiteSpace=wrap;html=1;fillColor=#fff2cc;strokeColor=#d6b656;" vertex="1" parent="RWOpoAa0g8dToT_tsujj-63">
          <mxGeometry x="222.2222222222222" y="467.2368421052632" width="540.7407407407408" height="88.1578947368421" as="geometry" />
        </mxCell>
        <mxCell id="RWOpoAa0g8dToT_tsujj-26" value="" style="rounded=0;whiteSpace=wrap;html=1;fillColor=#647687;fontColor=#ffffff;strokeColor=#314354;" vertex="1" parent="RWOpoAa0g8dToT_tsujj-63">
          <mxGeometry x="770.3703703703703" y="44.07894736842105" width="22.22222222222222" height="608.2894736842105" as="geometry" />
        </mxCell>
        <mxCell id="RWOpoAa0g8dToT_tsujj-27" value="" style="rounded=1;whiteSpace=wrap;html=1;fillColor=#fff2cc;strokeColor=#d6b656;" vertex="1" parent="RWOpoAa0g8dToT_tsujj-63">
          <mxGeometry x="222.2222222222222" y="571.2631578947368" width="540.7407407407408" height="88.1578947368421" as="geometry" />
        </mxCell>
        <mxCell id="RWOpoAa0g8dToT_tsujj-28" value="&lt;font style=&quot;font-size: 20px;&quot;&gt;Elérhető&lt;/font&gt;" style="rounded=0;whiteSpace=wrap;html=1;fillColor=#008a00;fontColor=#ffffff;strokeColor=#005700;" vertex="1" parent="RWOpoAa0g8dToT_tsujj-63">
          <mxGeometry x="511.1111111111111" y="66.11842105263158" width="74.07407407407408" height="44.07894736842105" as="geometry" />
        </mxCell>
        <mxCell id="RWOpoAa0g8dToT_tsujj-29" value="&lt;font style=&quot;font-size: 25px;&quot;&gt;Szerkesztés&lt;/font&gt;" style="rounded=1;whiteSpace=wrap;html=1;fillColor=#1ba1e2;strokeColor=#006EAF;fontColor=#ffffff;" vertex="1" parent="RWOpoAa0g8dToT_tsujj-63">
          <mxGeometry x="600" y="61.71052631578947" width="140.74074074074073" height="52.89473684210527" as="geometry" />
        </mxCell>
        <mxCell id="RWOpoAa0g8dToT_tsujj-30" value="&lt;font style=&quot;font-size: 20px;&quot;&gt;Nem&lt;font style=&quot;font-size: 20px;&quot;&gt; elérhető&lt;/font&gt;&lt;/font&gt;" style="rounded=0;whiteSpace=wrap;html=1;fillColor=#FFCCCC;strokeColor=#b85450;" vertex="1" parent="RWOpoAa0g8dToT_tsujj-63">
          <mxGeometry x="511.1111111111111" y="167.5" width="74.07407407407408" height="52.89473684210527" as="geometry" />
        </mxCell>
        <mxCell id="RWOpoAa0g8dToT_tsujj-31" value="&lt;font style=&quot;font-size: 25px;&quot;&gt;Szerkesztés&lt;/font&gt;" style="rounded=1;whiteSpace=wrap;html=1;fillColor=#1ba1e2;strokeColor=#006EAF;fontColor=#ffffff;" vertex="1" parent="RWOpoAa0g8dToT_tsujj-63">
          <mxGeometry x="600" y="163.09210526315792" width="140.74074074074073" height="52.89473684210527" as="geometry" />
        </mxCell>
        <mxCell id="RWOpoAa0g8dToT_tsujj-32" value="" style="rounded=0;whiteSpace=wrap;html=1;fillColor=#f5f5f5;fontColor=#333333;strokeColor=#666666;" vertex="1" parent="RWOpoAa0g8dToT_tsujj-63">
          <mxGeometry x="770.3703703703703" y="52.89473684210527" width="22.22222222222222" height="35.26315789473684" as="geometry" />
        </mxCell>
        <mxCell id="RWOpoAa0g8dToT_tsujj-52" value="" style="rounded=0;whiteSpace=wrap;html=1;fillColor=#d5e8d4;strokeColor=#82b366;" vertex="1" parent="RWOpoAa0g8dToT_tsujj-63">
          <mxGeometry x="244.44444444444443" y="52.89473684210527" width="59.25925925925925" height="70.52631578947368" as="geometry" />
        </mxCell>
        <mxCell id="RWOpoAa0g8dToT_tsujj-53" value="" style="rounded=0;whiteSpace=wrap;html=1;fillColor=#e1d5e7;strokeColor=#9673a6;" vertex="1" parent="RWOpoAa0g8dToT_tsujj-63">
          <mxGeometry x="244.44444444444443" y="158.68421052631578" width="59.25925925925925" height="70.52631578947368" as="geometry" />
        </mxCell>
        <mxCell id="RWOpoAa0g8dToT_tsujj-74" value="Csapattagok: Hebők Máté, Détár Előd, Horváth Ferenc" style="text;html=1;strokeColor=none;fillColor=none;align=center;verticalAlign=middle;whiteSpace=wrap;rounded=0;" vertex="1" parent="RWOpoAa0g8dToT_tsujj-63">
          <mxGeometry x="455" y="-3.5499999999999545" width="350" height="30" as="geometry" />
        </mxCell>
        <mxCell id="RWOpoAa0g8dToT_tsujj-64" value="" style="group" vertex="1" connectable="0" parent="1">
          <mxGeometry x="25" y="2280" width="800" height="550" as="geometry" />
        </mxCell>
        <mxCell id="RWOpoAa0g8dToT_tsujj-33" value="" style="rounded=0;whiteSpace=wrap;html=1;" vertex="1" parent="RWOpoAa0g8dToT_tsujj-64">
          <mxGeometry width="800" height="550" as="geometry" />
        </mxCell>
        <mxCell id="RWOpoAa0g8dToT_tsujj-34" value="&lt;font style=&quot;font-size: 30px;&quot;&gt;Felhasználók&lt;/font&gt;" style="rounded=0;whiteSpace=wrap;html=1;fillColor=#647687;strokeColor=none;fontColor=#ffffff;" vertex="1" parent="RWOpoAa0g8dToT_tsujj-64">
          <mxGeometry y="183.33333333333334" width="214.8148148148148" height="175.69444444444446" as="geometry" />
        </mxCell>
        <mxCell id="RWOpoAa0g8dToT_tsujj-35" value="&lt;font style=&quot;font-size: 30px;&quot;&gt;Információ&lt;/font&gt;" style="rounded=1;whiteSpace=wrap;html=1;fillColor=#dae8fc;strokeColor=#6c8ebf;" vertex="1" parent="RWOpoAa0g8dToT_tsujj-64">
          <mxGeometry y="366.6666666666667" width="214.8148148148148" height="175.69444444444446" as="geometry" />
        </mxCell>
        <mxCell id="RWOpoAa0g8dToT_tsujj-36" value="" style="rounded=0;whiteSpace=wrap;html=1;fillColor=#647687;strokeColor=none;strokeWidth=0;fontColor=#ffffff;" vertex="1" parent="RWOpoAa0g8dToT_tsujj-64">
          <mxGeometry x="214.8148148148148" width="585.1851851851851" height="550" as="geometry" />
        </mxCell>
        <mxCell id="RWOpoAa0g8dToT_tsujj-37" value="&lt;font style=&quot;font-size: 30px;&quot;&gt;Könyvtár&lt;/font&gt;" style="rounded=1;whiteSpace=wrap;html=1;fillColor=#dae8fc;strokeColor=#6c8ebf;" vertex="1" parent="RWOpoAa0g8dToT_tsujj-64">
          <mxGeometry y="7.638888888888889" width="214.8148148148148" height="168.05555555555554" as="geometry" />
        </mxCell>
        <mxCell id="RWOpoAa0g8dToT_tsujj-38" value="" style="rounded=0;whiteSpace=wrap;html=1;fillColor=#f5f5f5;fontColor=#333333;strokeColor=#666666;" vertex="1" parent="RWOpoAa0g8dToT_tsujj-64">
          <mxGeometry x="770.3703703703703" y="7.638888888888889" width="22.22222222222222" height="527.0833333333334" as="geometry" />
        </mxCell>
        <mxCell id="RWOpoAa0g8dToT_tsujj-39" value="" style="rounded=0;whiteSpace=wrap;html=1;fillColor=#0050ef;fontColor=#ffffff;strokeColor=#001DBC;" vertex="1" parent="RWOpoAa0g8dToT_tsujj-64">
          <mxGeometry x="770.3703703703703" y="15.277777777777779" width="22.22222222222222" height="30.555555555555557" as="geometry" />
        </mxCell>
        <mxCell id="RWOpoAa0g8dToT_tsujj-40" value="" style="rounded=1;whiteSpace=wrap;html=1;fillColor=#d5e8d4;strokeColor=#82b366;" vertex="1" parent="RWOpoAa0g8dToT_tsujj-64">
          <mxGeometry x="237.037037037037" y="15.277777777777779" width="155.55555555555554" height="183.33333333333334" as="geometry" />
        </mxCell>
        <mxCell id="RWOpoAa0g8dToT_tsujj-41" value="" style="rounded=1;whiteSpace=wrap;html=1;fillColor=#d5e8d4;strokeColor=#82b366;" vertex="1" parent="RWOpoAa0g8dToT_tsujj-64">
          <mxGeometry x="407.4074074074074" y="15.277777777777779" width="155.55555555555554" height="183.33333333333334" as="geometry" />
        </mxCell>
        <mxCell id="RWOpoAa0g8dToT_tsujj-42" value="" style="rounded=1;whiteSpace=wrap;html=1;fillColor=#d5e8d4;strokeColor=#82b366;" vertex="1" parent="RWOpoAa0g8dToT_tsujj-64">
          <mxGeometry x="577.7777777777777" y="15.277777777777779" width="155.55555555555554" height="183.33333333333334" as="geometry" />
        </mxCell>
        <mxCell id="RWOpoAa0g8dToT_tsujj-43" value="" style="rounded=1;whiteSpace=wrap;html=1;fillColor=#d5e8d4;strokeColor=#82b366;" vertex="1" parent="RWOpoAa0g8dToT_tsujj-64">
          <mxGeometry x="237.037037037037" y="220" width="155.55555555555554" height="183.33333333333334" as="geometry" />
        </mxCell>
        <mxCell id="RWOpoAa0g8dToT_tsujj-44" value="" style="rounded=1;whiteSpace=wrap;html=1;fillColor=#d5e8d4;strokeColor=#82b366;" vertex="1" parent="RWOpoAa0g8dToT_tsujj-64">
          <mxGeometry x="407.4074074074074" y="220" width="155.55555555555554" height="183.33333333333334" as="geometry" />
        </mxCell>
        <mxCell id="RWOpoAa0g8dToT_tsujj-45" value="" style="rounded=1;whiteSpace=wrap;html=1;fillColor=#d5e8d4;strokeColor=#82b366;" vertex="1" parent="RWOpoAa0g8dToT_tsujj-64">
          <mxGeometry x="577.7777777777777" y="220" width="155.55555555555554" height="183.33333333333334" as="geometry" />
        </mxCell>
        <mxCell id="RWOpoAa0g8dToT_tsujj-46" value="" style="ellipse;whiteSpace=wrap;html=1;fillColor=#a0522d;fontColor=#ffffff;strokeColor=#6D1F00;" vertex="1" parent="RWOpoAa0g8dToT_tsujj-64">
          <mxGeometry x="270.3703703703704" y="30.555555555555557" width="88.88888888888889" height="91.66666666666667" as="geometry" />
        </mxCell>
        <mxCell id="RWOpoAa0g8dToT_tsujj-47" value="&lt;font face=&quot;Verdana&quot; style=&quot;font-size: 14px;&quot;&gt;Jóska Pista&lt;/font&gt;" style="text;html=1;strokeColor=none;fillColor=none;align=center;verticalAlign=middle;whiteSpace=wrap;rounded=0;" vertex="1" parent="RWOpoAa0g8dToT_tsujj-64">
          <mxGeometry x="269.81" y="121.32" width="90" height="40" as="geometry" />
        </mxCell>
        <mxCell id="RWOpoAa0g8dToT_tsujj-48" value="&lt;font style=&quot;font-size: 15px;&quot;&gt;Szerkesztés&lt;/font&gt;" style="rounded=0;whiteSpace=wrap;html=1;fillColor=#ffcc99;strokeColor=#36393d;" vertex="1" parent="RWOpoAa0g8dToT_tsujj-64">
          <mxGeometry x="270.3703703703704" y="152.77777777777777" width="88.88888888888889" height="38.19444444444444" as="geometry" />
        </mxCell>
        <mxCell id="RWOpoAa0g8dToT_tsujj-49" value="" style="ellipse;whiteSpace=wrap;html=1;fillColor=#e1d5e7;strokeColor=#9673a6;" vertex="1" parent="RWOpoAa0g8dToT_tsujj-64">
          <mxGeometry x="440.7407407407407" y="30.555555555555557" width="88.88888888888889" height="91.66666666666667" as="geometry" />
        </mxCell>
        <mxCell id="RWOpoAa0g8dToT_tsujj-50" value="&lt;font style=&quot;&quot; face=&quot;Verdana&quot;&gt;&lt;font style=&quot;font-size: 14px;&quot;&gt;Kis Marika&lt;/font&gt;&lt;br&gt;&lt;/font&gt;" style="text;html=1;strokeColor=none;fillColor=none;align=center;verticalAlign=middle;whiteSpace=wrap;rounded=0;" vertex="1" parent="RWOpoAa0g8dToT_tsujj-64">
          <mxGeometry x="440.7407407407407" y="129.86111111111111" width="88.88888888888889" height="22.916666666666668" as="geometry" />
        </mxCell>
        <mxCell id="RWOpoAa0g8dToT_tsujj-51" value="&lt;font style=&quot;font-size: 15px;&quot;&gt;Szerkesztés&lt;/font&gt;" style="rounded=0;whiteSpace=wrap;html=1;fillColor=#ffcc99;strokeColor=#36393d;" vertex="1" parent="RWOpoAa0g8dToT_tsujj-64">
          <mxGeometry x="440.7407407407407" y="152.77777777777777" width="88.88888888888889" height="38.19444444444444" as="geometry" />
        </mxCell>
        <mxCell id="RWOpoAa0g8dToT_tsujj-65" value="" style="group" vertex="1" connectable="0" parent="1">
          <mxGeometry x="15" y="3370" width="820" height="560" as="geometry" />
        </mxCell>
        <mxCell id="RWOpoAa0g8dToT_tsujj-54" value="" style="rounded=0;whiteSpace=wrap;html=1;" vertex="1" parent="RWOpoAa0g8dToT_tsujj-65">
          <mxGeometry width="820" height="560" as="geometry" />
        </mxCell>
        <mxCell id="RWOpoAa0g8dToT_tsujj-55" value="&lt;font style=&quot;font-size: 30px;&quot;&gt;Felhasználók&lt;/font&gt;" style="rounded=1;whiteSpace=wrap;html=1;fillColor=#dae8fc;strokeColor=#6c8ebf;" vertex="1" parent="RWOpoAa0g8dToT_tsujj-65">
          <mxGeometry y="194.44444444444446" width="220.1851851851852" height="186.66666666666666" as="geometry" />
        </mxCell>
        <mxCell id="RWOpoAa0g8dToT_tsujj-56" value="&lt;font style=&quot;font-size: 30px;&quot;&gt;Info&lt;/font&gt;" style="rounded=0;whiteSpace=wrap;html=1;fillColor=#e1d5e7;strokeColor=none;" vertex="1" parent="RWOpoAa0g8dToT_tsujj-65">
          <mxGeometry y="388.8888888888889" width="220.1851851851852" height="171.11111111111111" as="geometry" />
        </mxCell>
        <mxCell id="RWOpoAa0g8dToT_tsujj-57" value="" style="rounded=0;whiteSpace=wrap;html=1;fillColor=#e1d5e7;strokeColor=none;strokeWidth=0;" vertex="1" parent="RWOpoAa0g8dToT_tsujj-65">
          <mxGeometry x="220.1851851851852" width="599.8148148148149" height="560" as="geometry" />
        </mxCell>
        <mxCell id="RWOpoAa0g8dToT_tsujj-58" value="&lt;font style=&quot;font-size: 30px;&quot;&gt;Könyvtár&lt;/font&gt;" style="rounded=1;whiteSpace=wrap;html=1;fillColor=#dae8fc;strokeColor=#6c8ebf;" vertex="1" parent="RWOpoAa0g8dToT_tsujj-65">
          <mxGeometry y="7.777777777777778" width="220.1851851851852" height="178.88888888888889" as="geometry" />
        </mxCell>
        <mxCell id="RWOpoAa0g8dToT_tsujj-59" value="" style="rounded=0;whiteSpace=wrap;html=1;fillColor=#647687;fontColor=#ffffff;strokeColor=#314354;" vertex="1" parent="RWOpoAa0g8dToT_tsujj-65">
          <mxGeometry x="789.6296296296297" y="7.777777777777778" width="22.77777777777778" height="536.6666666666666" as="geometry" />
        </mxCell>
        <mxCell id="RWOpoAa0g8dToT_tsujj-60" value="" style="rounded=0;whiteSpace=wrap;html=1;fillColor=#f5f5f5;strokeColor=#666666;fontColor=#333333;" vertex="1" parent="RWOpoAa0g8dToT_tsujj-65">
          <mxGeometry x="789.6296296296297" y="15.555555555555555" width="22.77777777777778" height="31.11111111111111" as="geometry" />
        </mxCell>
        <mxCell id="RWOpoAa0g8dToT_tsujj-61" value="&lt;div&gt;&lt;font style=&quot;font-size: 60px;&quot;&gt;Leírás&lt;/font&gt;&lt;/div&gt;&lt;div&gt;&lt;font style=&quot;font-size: 60px;&quot;&gt;+&lt;/font&gt;&lt;/div&gt;&lt;div&gt;&lt;font style=&quot;font-size: 60px;&quot;&gt;Készítők&lt;br&gt;&lt;/font&gt;&lt;/div&gt;" style="rounded=1;whiteSpace=wrap;html=1;fillColor=none;" vertex="1" parent="RWOpoAa0g8dToT_tsujj-65">
          <mxGeometry x="227.7777777777778" y="7.777777777777778" width="554.2592592592592" height="536.6666666666666" as="geometry" />
        </mxCell>
        <mxCell id="RWOpoAa0g8dToT_tsujj-66" value="&lt;font style=&quot;font-size: 50px;&quot;&gt;Felhasználók&lt;/font&gt;" style="text;html=1;align=center;verticalAlign=middle;resizable=0;points=[];autosize=1;strokeColor=none;fillColor=none;" vertex="1" parent="1">
          <mxGeometry x="15" y="2200" width="320" height="70" as="geometry" />
        </mxCell>
        <mxCell id="RWOpoAa0g8dToT_tsujj-67" value="&lt;font style=&quot;font-size: 50px;&quot;&gt;Infó&lt;/font&gt;" style="text;html=1;align=center;verticalAlign=middle;resizable=0;points=[];autosize=1;strokeColor=none;fillColor=none;" vertex="1" parent="1">
          <mxGeometry x="25" y="3300" width="110" height="70" as="geometry" />
        </mxCell>
        <mxCell id="RWOpoAa0g8dToT_tsujj-68" value="Csapattagok: Hebők Máté, Détár Előd, Horváth Ferenc" style="text;html=1;strokeColor=none;fillColor=none;align=center;verticalAlign=middle;whiteSpace=wrap;rounded=0;" vertex="1" parent="1">
          <mxGeometry x="500" y="10" width="350" height="30" as="geometry" />
        </mxCell>
        <mxCell id="RWOpoAa0g8dToT_tsujj-70" value="A design még nem végleges és változtatható" style="text;html=1;align=center;verticalAlign=middle;resizable=0;points=[];autosize=1;strokeColor=none;fillColor=none;" vertex="1" parent="1">
          <mxGeometry x="580" y="1050" width="260" height="30" as="geometry" />
        </mxCell>
        <mxCell id="RWOpoAa0g8dToT_tsujj-71" value="A design még nem végleges és változtatható" style="text;html=1;align=center;verticalAlign=middle;resizable=0;points=[];autosize=1;strokeColor=none;fillColor=none;" vertex="1" parent="1">
          <mxGeometry x="570" y="2150" width="260" height="30" as="geometry" />
        </mxCell>
        <mxCell id="RWOpoAa0g8dToT_tsujj-72" value="A design még nem végleges és változtatható" style="text;html=1;align=center;verticalAlign=middle;resizable=0;points=[];autosize=1;strokeColor=none;fillColor=none;" vertex="1" parent="1">
          <mxGeometry x="580" y="3250" width="260" height="30" as="geometry" />
        </mxCell>
        <mxCell id="RWOpoAa0g8dToT_tsujj-73" value="A design még nem végleges és változtatható" style="text;html=1;align=center;verticalAlign=middle;resizable=0;points=[];autosize=1;strokeColor=none;fillColor=none;" vertex="1" parent="1">
          <mxGeometry x="580" y="4350" width="260" height="30" as="geometry" />
        </mxCell>
        <mxCell id="RWOpoAa0g8dToT_tsujj-75" value="Csapattagok: Hebők Máté, Détár Előd, Horváth Ferenc" style="text;html=1;strokeColor=none;fillColor=none;align=center;verticalAlign=middle;whiteSpace=wrap;rounded=0;" vertex="1" parent="1">
          <mxGeometry x="490" y="2220" width="350" height="30" as="geometry" />
        </mxCell>
        <mxCell id="RWOpoAa0g8dToT_tsujj-76" value="Csapattagok: Hebők Máté, Détár Előd, Horváth Ferenc" style="text;html=1;strokeColor=none;fillColor=none;align=center;verticalAlign=middle;whiteSpace=wrap;rounded=0;" vertex="1" parent="1">
          <mxGeometry x="485" y="3320" width="350" height="30" as="geometry" />
        </mxCell>
        <mxCell id="RWOpoAa0g8dToT_tsujj-77" value="Csapattagok: Hebők Máté, Détár Előd, Horváth Ferenc" style="text;html=1;strokeColor=none;fillColor=none;align=center;verticalAlign=middle;whiteSpace=wrap;rounded=0;" vertex="1" parent="1">
          <mxGeometry x="475" y="4410" width="350" height="30" as="geometry" />
        </mxCell>
        <mxCell id="RWOpoAa0g8dToT_tsujj-78" value="Könyvtár modul" style="rounded=0;whiteSpace=wrap;html=1;" vertex="1" parent="1">
          <mxGeometry x="40" y="4440" width="120" height="60" as="geometry" />
        </mxCell>
      </root>
    </mxGraphModel>
  </diagram>
</mxfile>
